<svg width="800" height="800" viewBox="0 0 800 800" fill="none" xmlns="http://www.w3.org/2000/svg">
<g clip-path="url(#clip0_344_2)">
<path d="M448.4 438.5H316.1V574.3H223.7V438.5H91.4V353.1H223.7V217.3H316.1V353.1H448.4V438.5Z" fill="white"/>
<path d="M774.8 163.625V621.325L595.075 774.4L304.45 678.9V774.375L117.7 542.7L588.1 598.875V194.5L774.8 163.625ZM25 302.65L95.2 209.95L357.775 103.225V26L588.025 194.475L117.65 285.8V542.75L25 516V302.65Z" fill="#3355BC"/>
<path d="M767.4 438.5H635.1V574.3H542.7V438.5H410.4V353.1H542.7V217.3H635.1V353.1H767.4V438.5Z" fill="white"/>
</g>
<defs>
<clipPath id="clip0_344_2">
<rect width="800" height="800" fill="white"/>
</clipPath>
</defs>
</svg>
